<svg width="32" height="32" viewBox="0 0 32 32" fill="none" xmlns="http://www.w3.org/2000/svg">
  <g clip-path="url(#clip0)">
    <path d="M30.5489 15.984C30.5489 14.1891 29.3498 12.7491 27.7784 12.2845L26.1087 11.7908L26.9403 10.2611C27.7229 8.82141 27.5525 6.95535 26.2834 5.68617C25.0142 4.41696 23.148 4.24653 21.7084 5.02915L20.1787 5.86074L19.6851 4.19106C19.2204 2.61967 17.7804 1.4206 15.9855 1.42065C14.1906 1.42065 12.7505 2.61969 12.2859 4.19106L11.7923 5.86074L10.2626 5.0292C8.82291 4.2466 6.95682 4.41698 5.68764 5.68617C4.41845 6.95535 4.24807 8.82144 5.03067 10.2611L5.86221 11.7908L4.19253 12.2844C2.63343 12.7454 1.44087 14.1667 1.42234 15.9421L1.42212 15.984C1.42212 17.7789 2.62114 19.219 4.19253 19.6836L5.86221 20.1772L5.03062 21.7069C4.24801 23.1466 4.41844 25.0127 5.68764 26.2819C6.95682 27.5511 8.82289 27.7214 10.2626 26.9388L11.7923 26.1073L12.286 27.7769C12.7505 29.3483 14.1906 30.5474 15.9855 30.5474V31.9559C13.5268 31.9559 11.5653 30.3072 10.9353 28.1763C8.98299 29.2375 6.43024 29.0164 4.69171 27.2778C2.95317 25.5393 2.73192 22.9865 3.79322 21.0342C1.66231 20.4042 0.0136722 18.4427 0.0136719 15.984C0.0136719 13.5254 1.6623 11.5638 3.79322 10.9338C2.73195 8.98152 2.95319 6.42876 4.69171 4.69024C6.43023 2.95171 8.98299 2.73048 10.9353 3.79174C11.5653 1.66083 13.5269 0.0121998 15.9855 0.0121994C18.4442 0.0121994 20.4056 1.66084 21.0357 3.79174C22.988 2.73045 25.5408 2.9517 27.2793 4.69024C29.0178 6.42877 29.239 8.98152 28.1777 10.9338C30.3087 11.5638 31.9573 13.5254 31.9573 15.984C31.9573 18.4427 30.3087 20.4042 28.1777 21.0342C29.239 22.9865 29.0178 25.5393 27.2793 27.2778C25.5408 29.0164 22.988 29.2376 21.0357 28.1763C20.4057 30.3072 18.4442 31.9559 15.9855 31.9559V30.5474C17.7804 30.5474 19.2204 29.3484 19.685 27.7769L20.1787 26.1073L21.7084 26.9389C23.1481 27.7215 25.0142 27.5511 26.2834 26.2819C27.5526 25.0127 27.723 23.1466 26.9403 21.7069L26.1087 20.1772L27.7784 19.6835C29.3376 19.2225 30.5301 17.8014 30.5487 16.026L30.5489 15.984Z" fill="#FF6900"/>
    <path d="M9.83074 18.0833C7.89891 17.8316 6.70507 16.278 6.95627 14.3424L7.0221 13.8352L8.86067 14.0747L8.79484 14.582C8.65625 15.6498 9.1605 16.4621 10.0265 16.5749C10.8925 16.6878 11.5723 16.0433 11.7126 14.9621L12.5233 8.71498L14.3619 8.95451L13.5511 15.2016C13.2982 17.1505 11.7626 18.335 9.83074 18.0833Z" fill="#FF6900"/>
    <path d="M8.79484 14.582L8.86067 14.0747L7.0221 13.8352L6.95627 14.3424L6.95063 14.3877C6.72555 16.2871 7.89534 17.8095 9.78559 18.0772L9.83074 18.0833C11.7475 18.333 13.2742 17.1689 13.545 15.2471L13.5511 15.2016L14.3619 8.95451L12.5233 8.71498L11.7126 14.9621L11.7056 15.0124C11.551 16.0633 10.879 16.686 10.0265 16.5749L10.0763 16.1915C10.3938 16.2329 10.6641 16.1379 10.8755 15.9363C11.0932 15.7285 11.2683 15.3864 11.3299 14.9122L12.1904 8.28169L14.7944 8.62094L13.9338 15.2515C13.7955 16.3175 13.3018 17.197 12.5564 17.7737C11.8109 18.3504 10.8391 18.6046 9.78097 18.4668C7.63778 18.1875 6.29489 16.4399 6.57357 14.2926L6.68916 13.4019L9.29316 13.7411L9.17756 14.6318C9.11728 15.0964 9.20094 15.4727 9.36195 15.7328C9.51901 15.9867 9.76043 16.1504 10.0763 16.1915L10.0265 16.5749L9.98615 16.5692C9.15825 16.4388 8.67395 15.6585 8.78882 14.6318L8.79484 14.582Z" fill="#FF6900"/>
    <path d="M16.7905 22.0412L15.4556 12.714L17.2909 12.4504L17.8248 16.1812L21.5486 15.6463L21.0146 11.9154L22.8499 11.6517L24.1848 20.9789L22.3495 21.2426L21.7641 17.1519L18.0403 17.6869L18.6258 21.7776L16.7905 22.0412Z" fill="#FF6900"/>
    <path d="M17.2909 12.4504L15.4556 12.714L16.7905 22.0412L18.6258 21.7776L18.0403 17.6869L21.7641 17.1519L22.3495 21.2426L24.1848 20.9789L22.8499 11.6517L21.0146 11.9154L21.5486 15.6463L17.8248 16.1812L17.2909 12.4504ZM24.6216 21.3068L22.0223 21.6802L21.4368 17.5896L18.4771 18.0148L19.0626 22.1054L16.4633 22.4789L15.0188 12.3862L17.6181 12.0127L18.1521 15.7436L21.1118 15.3184L20.5778 11.5875L23.1771 11.2141L24.6216 21.3068Z" fill="#FF6900"/>
  </g>
  <defs>
    <clipPath id="clip0">
      <rect width="32" height="32" fill="white"/>
    </clipPath>
  </defs>
</svg>
